<svg width="200" height="197" viewBox="0 0 200 197" fill="none" xmlns="http://www.w3.org/2000/svg">
<path fill-rule="evenodd" clip-rule="evenodd" d="M192.079 173.584C196.496 175.59 199.771 173.584 199.924 169.071C200 167.495 200 165.991 200 164.415C199.514 163.576 199.566 162.656 199.619 161.742C199.665 160.938 199.711 160.138 199.391 159.401C199.236 158.559 199.107 157.705 198.977 156.849C198.787 155.593 198.596 154.332 198.324 153.097C193.831 131.177 182.711 112.553 166.335 96.507C159.44 89.7467 151.626 84.0487 143.779 78.3262L142.876 77.6679C142.648 77.3813 142.572 77.0947 142.496 76.808C142.242 76.0923 142.252 75.3267 142.263 74.5527C142.265 74.3971 142.267 74.2419 142.267 74.0864C142.121 73.3317 141.984 72.5769 141.847 71.8244C141.413 69.4345 140.982 67.0609 140.287 64.774C139.83 63.2698 139.982 62.9113 141.505 62.3385C144.704 61.1205 147.827 59.6878 150.874 58.1122C163.745 51.2353 173.266 41.8515 175.779 27.5248C176.063 26.7587 176.017 25.9619 175.971 25.163C175.917 24.243 175.864 23.3205 176.313 22.4391C173.266 16.4217 170.219 10.4046 167.02 4.38759L166.952 4.25786C165.752 1.99945 164.44 -0.47284 160.928 0.0894622C157.348 0.662721 157.043 3.38483 156.891 6.10693C156.586 11.8373 154.834 17.0663 151.407 21.7944C145.618 29.6022 137.316 34.2584 128.329 37.9833C126.806 38.628 126.044 37.9119 125.13 37.052C122.236 34.3299 118.808 32.3243 115 30.8916C109.529 28.7954 103.758 28.8962 98.0592 28.9957H98.0535C97.3285 29.0084 96.6048 29.0211 95.8829 29.0294C87.9614 29.1008 80.9545 31.5363 75.318 36.8372C73.8711 38.198 72.7284 38.628 70.7482 37.6967C66.483 35.8345 62.3704 33.8285 58.562 31.2497C49.1176 24.8027 43.2529 16.4935 43.1004 5.24704C43.1004 3.02676 42.1103 1.37885 40.054 0.232775C38.7591 -0.0538551 37.5404 -0.125288 36.2456 0.304656C34.7965 0.304656 34.2856 1.33415 33.8072 2.29835C33.7074 2.49952 33.6089 2.69762 33.5038 2.88344C32.7999 4.15224 32.1409 5.44251 31.484 6.72928C30.4346 8.78389 29.3899 10.8306 28.172 12.7687C24.3641 18.7857 22.9928 24.8746 24.9731 31.823C27.1059 39.2013 31.1424 45.5049 36.931 50.5192C43.1004 55.8915 50.3359 59.9744 58.3334 62.6965C59.3996 63.0546 59.9329 63.4127 59.4761 64.9887C59.2892 65.6904 59.0707 66.3921 58.8518 67.0959C58.176 69.2658 57.4941 71.4563 57.724 73.7279C58.0287 76.3066 56.8865 77.8827 54.6015 79.3154C42.7957 86.6218 32.7419 95.8623 24.1355 106.249C10.0452 123.298 1.28619 142.495 0.219567 164.415C-0.0086186 166.779 -0.16118 169.215 0.29607 171.578C2.12375 174.945 3.72325 175.446 7.8363 173.441C16.4427 169.215 25.2017 165.49 34.2653 162.123C35.2489 161.758 36.228 161.384 37.2093 161.01C42.0039 159.182 46.8555 157.331 52.5448 156.321C47.5942 161.908 44.6999 167.853 43.329 174.157C43.2912 174.322 43.2525 174.489 43.2129 174.658C42.5332 177.578 41.7141 181.096 45.3853 183.398C47.0068 184.373 48.7386 185.246 50.4401 186.102C50.7364 186.252 51.0323 186.4 51.3265 186.549C62.3704 191.922 74.0997 195.002 86.4384 196.148C87.0228 196.342 87.6387 196.332 88.2573 196.322C89.0087 196.309 89.7649 196.296 90.475 196.65C96.7204 196.65 102.966 196.65 109.135 196.721C109.891 196.31 110.709 196.348 111.536 196.386C112.291 196.421 113.054 196.456 113.782 196.148C126.958 194.357 139.525 191.062 151.178 184.759C157.271 181.464 157.424 181.32 156.053 174.014C154.834 167.567 151.483 162.051 146.989 156.392C150.957 156.896 154.283 158.217 157.525 159.505C158.888 160.046 160.238 160.582 161.613 161.048C170.714 164.004 179.308 167.859 187.879 171.705C189.278 172.332 190.679 172.961 192.079 173.584ZM151.864 34.8312C157.195 30.4617 161.08 25.0894 163.974 18.929C166.259 21.3645 166.944 23.8718 166.335 26.952C164.127 37.9833 156.434 44.9317 146.685 50.1607C137.24 55.2468 126.958 58.0404 116.447 60.2611C114.848 60.6192 114.01 60.4758 114.467 58.6851C114.619 58.0404 114.619 57.1809 114.314 56.6076C112.106 52.1666 114.924 51.4501 118.732 50.5192C130.918 47.6538 142.191 42.7828 151.864 34.8312ZM127.415 66.9228C130.157 66.1348 131.3 66.2781 131.832 69.3583L131.944 69.957C132.481 72.8443 132.759 74.3401 132.135 75.115C131.465 75.9486 129.752 75.9486 126.196 75.9486H99.9194C97.4846 75.9486 95.0449 75.9442 92.603 75.9398C85.2672 75.9262 77.9103 75.9126 70.596 76.0204C67.7778 76.0919 67.1684 75.2324 67.7017 72.797L67.7316 72.6436C68.997 66.2023 69.0493 65.9349 75.7753 67.8541C93.1407 72.5103 110.278 71.9371 127.415 66.9228ZM100.072 53.5275C102.661 53.5275 104.946 55.6049 104.87 58.3984C104.565 60.7625 102.89 62.4099 99.9955 62.4099C97.1777 62.4099 95.6542 60.691 95.4256 58.1837C95.197 55.7482 97.4819 53.5994 100.072 53.5275ZM115.914 41.5649C105.327 45.2183 94.9688 45.2183 84.2296 41.6367C91.9984 36.264 108.145 36.264 115.914 41.5649ZM46.3754 45.5049C40.4347 41.1353 36.1695 35.6193 34.2653 28.6709C33.0466 24.2299 33.2752 23.2271 35.9409 19.0723C49.2697 39.0579 53.6875 41.9229 87.0474 52.0948C86.9225 52.6356 86.7401 53.1839 86.5567 53.7348C86.1817 54.8629 85.8027 56.0024 85.9051 57.109C86.2098 60.3325 85.2197 60.691 82.0207 59.9745C69.3012 56.9662 56.9625 53.3127 46.3754 45.5049ZM10.1212 162.409C13.8531 131.034 31.5236 108.255 57.2672 88.8425C57.2672 91.8328 57.2887 94.7289 57.3099 97.5575C57.3573 103.943 57.4022 109.985 57.1911 115.991C56.8865 126.02 58.7902 135.189 67.4731 142.567C47.5181 147.366 28.7054 153.813 10.1212 162.409ZM140.591 179.744C112.106 191.277 83.7723 190.704 55.8198 178.097C53.1542 176.879 52.6973 175.661 53.6875 173.154C56.9625 164.845 63.208 158.613 69.9106 152.739C71.3725 151.493 72.917 150.324 74.4616 149.155C75.4913 148.376 76.5214 147.595 77.5269 146.793C80.4212 144.501 80.5733 141.994 77.9842 139.487C77.4508 138.986 76.8415 138.484 76.3082 138.054C69.3012 132.682 66.3309 125.876 66.7116 117.353C67.0629 110.412 66.964 103.429 66.8651 96.4356C66.8352 94.3349 66.8053 92.2334 66.7877 90.1319C66.7877 87.9831 67.0924 86.9799 69.8341 87.0517C77.4508 87.2665 85.0671 87.195 92.6839 87.0517C94.8927 87.0517 95.4256 87.6964 95.5017 89.702L95.5074 89.9137C95.6164 94.0378 95.6723 96.1507 94.6404 97.2328C93.5566 98.3697 91.273 98.3697 86.5906 98.3697H81.64C78.441 98.4411 76.5368 99.9457 76.6129 102.954C76.6894 105.819 78.5931 107.181 81.64 107.181C82.5514 107.181 83.4676 107.185 84.3865 107.189C87.152 107.203 89.9395 107.216 92.6839 107.109C94.8162 107.037 95.5017 107.682 95.5017 109.688L95.5069 110.089C95.5812 115.92 95.5813 115.921 88.9516 115.991H86.2859C83.2395 116.206 81.1827 117.567 81.2592 120.647C81.4113 123.513 83.4676 124.73 86.3619 124.874H86.7427C87.5741 124.896 88.5035 124.825 89.4374 124.754C91.5838 124.591 93.7549 124.427 94.8162 125.375C96.0886 126.472 95.8481 128.54 95.6103 130.59C95.5061 131.485 95.4027 132.377 95.4256 133.183C95.4581 134.503 95.4489 135.836 95.4397 137.17C95.4274 138.95 95.4146 140.736 95.5017 142.495C95.5782 145.361 97.1012 147.366 100.376 147.295C103.575 147.151 105.023 145.217 105.023 142.281C105.023 141.027 105.027 139.773 105.032 138.519C105.046 134.759 105.06 130.998 104.946 127.238C104.87 125.375 105.403 124.659 107.46 124.874C109.745 125.017 112.029 124.946 114.314 124.874C117.361 124.802 119.189 123.083 119.189 120.433C119.189 117.711 117.285 116.063 114.314 115.991L114.24 115.989C111.83 115.918 109.49 115.85 107.079 115.991C105.403 116.063 105.023 115.418 104.946 113.914L104.934 113.699C104.753 110.465 104.66 108.818 105.442 107.979C106.252 107.109 108.003 107.109 111.573 107.109H119.189C122.236 107.037 123.987 105.389 123.987 102.668C123.987 100.089 122.236 98.4411 119.418 98.3697C115.457 98.2264 111.573 98.2264 107.612 98.3697C105.632 98.4411 105.099 97.9397 105.023 96.0056L105.015 95.7909C104.869 91.5392 104.794 89.3733 105.844 88.2697C106.935 87.1232 109.238 87.1232 113.934 87.1232C115.52 87.1232 117.112 87.135 118.707 87.1468C122.703 87.1758 126.716 87.2051 130.69 87.0517C133.127 86.9799 133.737 87.6964 133.66 89.9172C133.546 94.1097 133.56 98.3429 133.575 102.556V102.562V102.569V102.576C133.58 103.97 133.584 105.363 133.584 106.751H133.356V122.152C133.432 127.811 130.538 132.18 126.501 135.977C125.801 136.635 125.068 137.263 124.324 137.9C123.935 138.233 123.542 138.569 123.149 138.914C119.57 142.066 119.722 144.573 123.607 147.366C131.756 153.312 139.297 159.902 144.476 168.426C148.894 175.876 148.817 176.45 140.591 179.744ZM132.899 142.639C139.677 136.335 143.105 128.957 142.952 120.218C142.902 115.92 142.918 111.622 142.936 107.324V107.311C142.944 105.166 142.952 103.021 142.952 100.877V88.914C157.5 99.5876 169.458 111.478 178.064 126.163C184.082 136.478 188.347 147.366 189.489 159.114C189.507 159.328 189.572 159.561 189.638 159.795C189.86 160.578 190.083 161.368 188.499 161.478C170.753 153.742 152.473 147.223 132.899 142.639Z" fill="white"/>
</svg>
