<svg width="200" height="200" viewBox="0 0 200 200" fill="none" xmlns="http://www.w3.org/2000/svg">
<circle cx="100" cy="100" r="99.5" fill="black" stroke="white"/>
<path fill-rule="evenodd" clip-rule="evenodd" d="M168.138 155.452C171.407 156.936 173.831 155.452 173.944 152.113C174 150.946 174 149.833 174 148.667C173.64 148.046 173.679 147.366 173.718 146.689C173.752 146.094 173.786 145.502 173.549 144.957C173.435 144.334 173.339 143.701 173.243 143.068C173.102 142.139 172.961 141.206 172.76 140.292C169.435 124.071 161.206 110.289 149.088 98.4152C143.986 93.4125 138.204 89.196 132.397 84.9614L131.728 84.4743C131.559 84.2622 131.503 84.05 131.447 83.8379C131.259 83.3083 131.267 82.7417 131.275 82.169C131.276 82.0539 131.278 81.939 131.278 81.8239C131.169 81.2654 131.068 80.7069 130.967 80.1501C130.646 78.3816 130.327 76.625 129.812 74.9327C129.474 73.8197 129.587 73.5544 130.714 73.1305C133.081 72.2292 135.392 71.169 137.647 70.0031C147.172 64.9141 154.217 57.9701 156.077 47.3684C156.287 46.8015 156.252 46.2118 156.218 45.6206C156.179 44.9399 156.14 44.2572 156.471 43.605C154.217 39.152 151.962 34.6994 149.595 30.2468L149.544 30.1508C148.657 28.4796 147.685 26.6501 145.086 27.0662C142.437 27.4904 142.212 29.5048 142.099 31.5191C141.874 35.7596 140.577 39.6291 138.041 43.1279C133.758 48.9057 127.614 52.3512 120.963 55.1076C119.836 55.5847 119.272 55.0548 118.596 54.4185C116.455 52.4041 113.918 50.92 111.1 49.8598C107.051 48.3086 102.781 48.3832 98.5638 48.4568H98.5596C98.0231 48.4662 97.4875 48.4756 96.9533 48.4818C91.0915 48.5346 85.9063 50.3369 81.7353 54.2595C80.6646 55.2666 79.819 55.5847 78.3536 54.8955C75.1974 53.5175 72.1541 52.0331 69.3359 50.1248C62.347 45.354 58.0072 39.2052 57.8943 30.8828C57.8943 29.2398 57.1616 28.0204 55.6399 27.1723C54.6818 26.9601 53.7799 26.9073 52.8217 27.2254C51.7494 27.2254 51.3713 27.9873 51.0173 28.7008C50.9435 28.8496 50.8706 28.9962 50.7928 29.1337C50.272 30.0727 49.7843 31.0275 49.2982 31.9797C48.5216 33.5001 47.7485 35.0147 46.8473 36.4488C44.0294 40.9014 43.0147 45.4072 44.4801 50.549C46.0583 56.0089 49.0454 60.6736 53.329 64.3842C57.8943 68.3597 63.2486 71.3811 69.1667 73.3954C69.9557 73.6604 70.3503 73.9254 70.0123 75.0917C69.874 75.6109 69.7123 76.1301 69.5503 76.651C69.0502 78.2567 68.5456 79.8777 68.7158 81.5586C68.9412 83.4669 68.096 84.6332 66.4051 85.6934C57.6688 91.1001 50.229 97.9381 43.8603 105.625C33.4334 118.24 26.9518 132.447 26.1625 148.667C25.9936 150.417 25.8807 152.219 26.2191 153.968C27.5716 156.459 28.7552 156.83 31.7989 155.346C38.1676 152.219 44.6492 149.462 51.3564 146.971C52.0842 146.701 52.8087 146.424 53.5349 146.147C57.0829 144.794 60.6731 143.425 64.8831 142.677C61.2197 146.812 59.0779 151.211 58.0635 155.876C58.0355 155.998 58.0069 156.122 57.9776 156.247C57.4746 158.407 56.8684 161.011 59.5851 162.714C60.785 163.436 62.0666 164.082 63.3257 164.716C63.545 164.826 63.7639 164.936 63.9816 165.047C72.1541 169.022 80.8338 171.301 89.9644 172.15C90.3968 172.293 90.8527 172.286 91.3104 172.278C91.8665 172.269 92.4261 172.259 92.9515 172.521C97.5731 172.521 102.195 172.521 106.76 172.574C107.319 172.269 107.925 172.297 108.536 172.326C109.095 172.352 109.66 172.378 110.198 172.15C119.949 170.824 129.249 168.386 137.872 163.721C142.381 161.283 142.494 161.177 141.479 155.77C140.577 151 138.098 146.918 134.772 142.73C137.708 143.103 140.169 144.081 142.569 145.033C143.577 145.434 144.576 145.831 145.594 146.176C152.328 148.363 158.688 151.216 165.031 154.062C166.066 154.526 167.103 154.991 168.138 155.452ZM138.379 52.7751C142.324 49.5416 145.199 45.5661 147.341 41.0075C149.032 42.8097 149.539 44.6652 149.088 46.9445C147.454 55.1076 141.761 60.2494 134.547 64.1189C127.558 67.8826 119.949 69.9499 112.171 71.5932C110.987 71.8582 110.367 71.7521 110.706 70.4269C110.818 69.9499 110.818 69.3139 110.593 68.8897C108.958 65.6033 111.044 65.0731 113.862 64.3842C122.88 62.2638 131.221 58.6593 138.379 52.7751ZM120.287 76.5229C122.316 75.9397 123.162 76.0458 123.556 78.3251L123.638 78.7682C124.036 80.9048 124.241 82.0117 123.78 82.5851C123.284 83.202 122.016 83.2019 119.385 83.2019H99.9404C98.1386 83.2019 96.3332 83.1987 94.5262 83.1955C89.0977 83.1854 83.6536 83.1753 78.2411 83.2551C76.1556 83.308 75.7046 82.672 76.0993 80.8698L76.1214 80.7562C77.0578 75.9897 77.0965 75.7919 82.0737 77.2121C94.9241 80.6576 107.606 80.2334 120.287 76.5229ZM100.053 66.6103C101.969 66.6103 103.66 68.1476 103.604 70.2148C103.378 71.9642 102.138 73.1833 99.9966 73.1833C97.9115 73.1833 96.7841 71.9114 96.615 70.0559C96.4458 68.2537 98.1366 66.6635 100.053 66.6103ZM111.776 57.758C103.942 60.4615 96.2769 60.4615 88.3299 57.8112C94.0788 53.8353 106.027 53.8353 111.776 57.758ZM60.3178 60.6736C55.9217 57.4402 52.7654 53.3583 51.3564 48.2165C50.4545 44.9301 50.6237 44.1881 52.5963 41.1135C62.4596 55.9029 65.7287 58.023 90.4151 65.5501C90.3227 65.9503 90.1876 66.3561 90.052 66.7637C89.7744 67.5985 89.494 68.4418 89.5698 69.2607C89.7953 71.6461 89.0626 71.9114 86.6953 71.3811C77.2829 69.155 68.1523 66.4514 60.3178 60.6736ZM33.4897 147.183C36.2513 123.965 49.3275 107.109 68.3777 92.7435C68.3777 94.9563 68.3937 97.0994 68.4093 99.1926C68.4444 103.918 68.4776 108.389 68.3214 112.834C68.096 120.255 69.5048 127.04 75.9301 132.5C61.1634 136.051 47.242 140.822 33.4897 147.183ZM130.038 160.011C108.958 168.545 87.9915 168.121 67.3067 158.792C65.3341 157.89 64.996 156.99 65.7287 155.134C68.1523 148.985 72.7739 144.373 77.7339 140.027C78.8156 139.105 79.9586 138.24 81.1016 137.375C81.8635 136.798 82.6258 136.221 83.3699 135.627C85.5117 133.931 85.6243 132.075 83.7083 130.22C83.3136 129.849 82.8627 129.478 82.468 129.16C77.2829 125.184 75.0848 120.149 75.3666 113.841C75.6266 108.705 75.5534 103.537 75.4801 98.3623C75.458 96.8079 75.4359 95.2527 75.4229 93.6976C75.4229 92.1075 75.6484 91.3651 77.6772 91.4183C83.3136 91.5772 88.9497 91.5243 94.5861 91.4183C96.2206 91.4183 96.6149 91.8954 96.6712 93.3795L96.6755 93.5361C96.7561 96.588 96.7975 98.1515 96.0339 98.9523C95.2319 99.7936 93.542 99.7936 90.077 99.7936H86.4136C84.0463 99.8464 82.6372 100.96 82.6935 103.186C82.7501 105.306 84.1589 106.314 86.4136 106.314C87.088 106.314 87.7661 106.317 88.446 106.32C90.4925 106.33 92.5552 106.34 94.5861 106.261C96.164 106.208 96.6712 106.685 96.6712 108.169L96.6751 108.466C96.7301 112.781 96.7301 112.782 91.8242 112.834H89.8515C87.5972 112.992 86.0752 114 86.1318 116.279C86.2444 118.4 87.7661 119.3 89.9078 119.407H90.1896C90.8048 119.423 91.4926 119.371 92.1837 119.318C93.772 119.198 95.3786 119.076 96.164 119.778C97.1056 120.589 96.9276 122.119 96.7516 123.636C96.6745 124.299 96.598 124.959 96.615 125.556C96.639 126.532 96.6322 127.518 96.6254 128.506C96.6162 129.823 96.6068 131.144 96.6712 132.447C96.7278 134.567 97.8549 136.051 100.278 135.998C102.646 135.892 103.717 134.461 103.717 132.288C103.717 131.36 103.72 130.432 103.724 129.504C103.734 126.722 103.745 123.939 103.66 121.156C103.604 119.778 103.998 119.248 105.52 119.407C107.211 119.513 108.901 119.46 110.592 119.407C112.847 119.354 114.2 118.081 114.2 116.12C114.2 114.106 112.791 112.887 110.593 112.834L110.538 112.832C108.754 112.779 107.023 112.729 105.238 112.834C103.998 112.887 103.717 112.41 103.66 111.296L103.651 111.137C103.517 108.744 103.449 107.525 104.027 106.905C104.627 106.261 105.923 106.261 108.564 106.261H114.2C116.455 106.208 117.751 104.988 117.751 102.974C117.751 101.066 116.455 99.8464 114.369 99.7936C111.438 99.6875 108.564 99.6875 105.633 99.7936C104.168 99.8464 103.773 99.4754 103.717 98.0442L103.711 97.8852C103.603 94.739 103.548 93.1362 104.325 92.3196C105.132 91.4712 106.836 91.4712 110.311 91.4712C111.484 91.4712 112.663 91.4799 113.843 91.4887C116.8 91.5101 119.77 91.5318 122.711 91.4183C124.514 91.3651 124.965 91.8954 124.909 93.5387C124.824 96.6412 124.835 99.7738 124.845 102.891V102.896V102.901V102.906C124.849 103.938 124.852 104.968 124.852 105.996H124.683V117.392C124.74 121.58 122.598 124.813 119.611 127.623C119.093 128.11 118.55 128.574 118 129.046C117.712 129.292 117.421 129.541 117.131 129.796C114.482 132.129 114.594 133.984 117.469 136.051C123.5 140.451 129.079 145.328 132.912 151.636C136.181 157.148 136.125 157.573 130.038 160.011ZM124.345 132.553C129.361 127.888 131.898 122.428 131.785 115.961C131.747 112.781 131.76 109.6 131.772 106.419V106.41C131.779 104.823 131.785 103.236 131.785 101.649V92.7963C142.55 100.695 151.399 109.494 157.768 120.361C162.22 127.994 165.377 136.051 166.222 144.744C166.235 144.903 166.284 145.075 166.332 145.248C166.496 145.827 166.661 146.412 165.489 146.494C152.357 140.769 138.83 135.945 124.345 132.553Z" fill="white"/>
</svg>
