<svg width="70" height="66" viewBox="0 0 70 66" fill="none" xmlns="http://www.w3.org/2000/svg">
<path fill-rule="evenodd" clip-rule="evenodd" d="M4.50569 8.27974C3.51824 8.27872 2.53079 8.27769 1.54334 8.27769C0.20944 8.27769 0.00155833 8.08156 0.00155833 6.8067C0.00155833 6.39809 0.00348315 5.98948 0.00540798 5.58087C0.00925763 4.76366 0.0131073 3.94644 0.00155833 3.12922C-0.0157651 2.63889 0.140146 2.29566 0.694495 2.19759C4.19383 2.18125 7.67584 2.1649 11.1578 2.13221C11.8161 2.14856 12.4744 2.1649 13.1327 2.13221C13.1809 2.13506 13.2296 2.13938 13.2786 2.14372C13.5112 2.16437 13.7496 2.18553 13.9642 2.05049C14.1172 1.80118 14.0916 1.54134 14.0665 1.28787C14.0604 1.22562 14.0543 1.16375 14.0509 1.10252C13.9989 0.497779 14.38 0.219925 14.8997 0.138203C15.4541 0.0564811 15.8352 0.334335 16.1123 0.808322C16.2383 1.012 16.2381 1.2333 16.2379 1.45392C16.2378 1.65821 16.2376 1.8619 16.3376 2.05049C16.4935 2.13221 16.6667 2.14856 16.8226 2.14856C16.9092 2.14856 17.0002 2.14447 17.0911 2.14039L17.0911 2.14039C17.1821 2.1363 17.273 2.13221 17.3596 2.13221C32.6562 2.14856 47.9528 2.14856 63.2494 2.14856C63.284 2.14856 63.323 2.14447 63.362 2.14039C63.401 2.1363 63.44 2.13221 63.4746 2.13221C63.7345 2.13221 63.9943 2.14856 64.2542 2.23028C65.7786 3.50879 67.1936 4.89061 68.6086 6.27243L68.6086 6.27247C68.7855 6.44517 68.9623 6.61786 69.1394 6.79036C69.1394 6.92928 69.1437 7.06413 69.148 7.19897C69.1524 7.33381 69.1567 7.46865 69.1567 7.60758C68.7929 8.19597 68.2039 8.27769 67.5283 8.27769C59.1437 8.26952 50.7592 8.26952 42.3747 8.26952C33.9901 8.26952 25.6056 8.26952 17.221 8.26135L17.1542 8.26127C16.5621 8.26014 16.1 8.25926 16.2336 9.07857C16.3029 9.53621 16.0084 9.96116 15.5926 10.2554C15.2981 10.3698 15.021 10.3534 14.7265 10.2717C14.0041 10.0597 14.0255 9.52479 14.0463 9.00527V9.00526V9.00524C14.0479 8.96416 14.0496 8.92316 14.0509 8.88243C14.1028 8.37576 13.9123 8.26135 13.3926 8.26135C10.4303 8.28587 7.46799 8.2828 4.50569 8.27974ZM16.5801 4.20795C16.4761 4.20795 16.2856 4.27333 16.2856 4.30601C16.2818 4.43451 16.2747 4.56456 16.2676 4.69566C16.242 5.16489 16.2157 5.64756 16.3376 6.12024C16.402 6.36329 16.7058 6.32623 16.9927 6.29123C17.0917 6.27916 17.1886 6.26734 17.273 6.26734H64.4447H65.2936C65.3455 6.16934 65.3974 6.08767 65.4494 6.00601L65.4495 6.00583C65.3424 5.92237 65.2328 5.84128 65.1234 5.76032L65.1233 5.76024L65.1233 5.7602C64.8257 5.53996 64.5294 5.32075 64.2888 5.05786C63.6998 4.40408 63.0415 4.1916 62.1234 4.1916C50.9108 4.21612 39.6981 4.21306 28.4855 4.20999C24.748 4.20897 21.0105 4.20795 17.273 4.20795C17.1986 4.20795 17.1223 4.20616 17.0453 4.20436H17.0453H17.0453C16.8894 4.20071 16.7308 4.19701 16.5801 4.20795ZM13.9252 4.38837C13.7381 4.1916 13.3441 4.1916 12.5437 4.1916H11.5216C11.9174 4.59606 12.2573 4.95446 12.5812 5.29602L12.5812 5.29604L12.5813 5.29616C12.7679 5.49285 12.9491 5.68396 13.1327 5.87507C13.1847 5.90776 13.2193 5.94045 13.254 5.98948C13.4099 6.20196 13.6178 6.26734 13.8603 6.2183C14.1328 6.17974 14.1052 5.98951 14.0811 5.82257C14.0745 5.77726 14.0682 5.73367 14.0682 5.69528C14.0938 4.955 14.1068 4.57917 13.9252 4.38837ZM9.44283 5.05786C9.28692 4.89441 9.14833 4.79635 8.97509 5.04151C8.87608 5.1972 8.75695 5.33866 8.63687 5.48124C8.44179 5.71287 8.2442 5.94749 8.12625 6.25099H10.6035C10.3273 5.9614 10.0933 5.72312 9.87668 5.50248L9.87657 5.50237L9.87649 5.50229L9.87625 5.50205C9.72625 5.34926 9.58454 5.20493 9.44283 5.05786ZM6.3964 4.96623C6.58386 4.73525 6.75728 4.52158 6.84431 4.25698H4.90409C5.16985 4.60324 5.40788 4.89717 5.66544 5.21522L5.66547 5.21526C5.76047 5.33257 5.85813 5.45316 5.96082 5.58087C6.09091 5.34261 6.24805 5.149 6.3964 4.96623ZM3.30586 5.61386C2.95893 5.16841 2.59797 4.70495 2.16699 4.15892C2.13833 5.4116 2.12548 5.97356 2.38979 6.17909C2.60483 6.34631 3.00335 6.27758 3.7261 6.15293C3.58583 5.97332 3.447 5.79508 3.30586 5.61386ZM55.5233 49.9395C56.5281 50.3971 57.273 49.9395 57.3077 48.9098C57.325 48.5502 57.325 48.207 57.325 47.8474C57.2144 47.656 57.2264 47.4461 57.2384 47.2374C57.2489 47.054 57.2593 46.8715 57.1864 46.7033C57.1513 46.5112 57.1219 46.3163 57.0924 46.121C57.0491 45.8345 57.0057 45.5468 56.9439 45.265C55.9218 40.2636 53.3926 36.0141 49.668 32.3529C48.0998 30.8104 46.3226 29.5103 44.5378 28.2046L44.3324 28.0544C44.2804 27.989 44.2631 27.9236 44.2458 27.8582C44.1881 27.6949 44.1905 27.5202 44.1929 27.3436C44.1933 27.3081 44.1938 27.2727 44.1938 27.2372C44.1606 27.065 44.1295 26.8928 44.0984 26.7211L44.0983 26.7207L44.0982 26.7203L44.0982 26.7203C43.9994 26.175 43.9015 25.6342 43.7434 25.1124C43.6395 24.7692 43.6741 24.6874 44.0206 24.5567C44.7482 24.2788 45.4584 23.9519 46.1514 23.5924C49.079 22.0233 51.2445 19.8822 51.8161 16.6133C51.8806 16.4385 51.8701 16.2567 51.8596 16.0744C51.8475 15.8645 51.8354 15.654 51.9374 15.4529C51.2445 14.0799 50.5515 12.707 49.8239 11.3341L49.8083 11.3045C49.5355 10.7892 49.2369 10.2251 48.4381 10.3534C47.6239 10.4842 47.5546 11.1053 47.5199 11.7264C47.4506 13.0339 47.0522 14.227 46.2726 15.3058C44.9561 17.0873 43.0678 18.1497 41.0236 18.9996C40.6772 19.1467 40.5039 18.9833 40.2961 18.7871C39.6378 18.166 38.8582 17.7084 37.992 17.3815C36.7476 16.9032 35.435 16.9262 34.1389 16.9489L34.1385 16.9489L34.138 16.9489L34.1376 16.9489C33.9727 16.9518 33.8081 16.9547 33.6439 16.9566C31.8422 16.9729 30.2485 17.5286 28.9665 18.7381C28.6374 19.0486 28.3775 19.1467 27.9271 18.9342C26.957 18.5093 26.0216 18.0516 25.1554 17.4632C23.0073 15.9922 21.6734 14.0963 21.6387 11.5302C21.6387 11.0236 21.4135 10.6476 20.9458 10.3861C20.6513 10.3207 20.3741 10.3044 20.0796 10.4025C19.75 10.4025 19.6338 10.6374 19.525 10.8574C19.5023 10.9033 19.4799 10.9485 19.456 10.9909C19.2959 11.2804 19.146 11.5748 18.9966 11.8684C18.7579 12.3372 18.5203 12.8042 18.2433 13.2464C17.3772 14.6193 17.0653 16.0086 17.5157 17.594C18.0008 19.2775 18.9189 20.7158 20.2355 21.8599C21.6387 23.0857 23.2844 24.0173 25.1034 24.6384C25.3459 24.7201 25.4672 24.8018 25.3633 25.1614C25.3208 25.3215 25.2711 25.4816 25.2213 25.6422C25.0676 26.1373 24.9125 26.6371 24.9648 27.1554C25.0341 27.7438 24.7743 28.1034 24.2546 28.4303C21.5694 30.0974 19.2827 32.2058 17.3252 34.5758C14.1204 38.4657 12.1282 42.846 11.8856 47.8474C11.8337 48.3868 11.799 48.9425 11.903 49.4818C12.3187 50.25 12.6825 50.3644 13.618 49.9068C15.5755 48.9425 17.5677 48.0926 19.6292 47.3244C19.8529 47.2411 20.0756 47.1559 20.2988 47.0705L20.299 47.0704L20.2992 47.0703C21.3897 46.6531 22.4928 46.2311 23.7868 46.0005C22.6608 47.2753 22.0025 48.6319 21.6907 50.0702C21.6821 50.1078 21.6733 50.146 21.6643 50.1846L21.6643 50.1848C21.5097 50.8509 21.3234 51.6535 22.1584 52.1787C22.5272 52.4013 22.9211 52.6003 23.3081 52.7958C23.3755 52.8299 23.4428 52.8638 23.5097 52.8978C26.0216 54.1236 28.6894 54.8264 31.4958 55.088C31.6287 55.1322 31.7688 55.1299 31.9095 55.1275C32.0804 55.1246 32.2524 55.1217 32.4139 55.2024C33.8344 55.2024 35.2549 55.2024 36.6581 55.2187C36.83 55.1248 37.0161 55.1335 37.2041 55.1422C37.3759 55.1502 37.5494 55.1582 37.7149 55.088C40.7118 54.6793 43.5702 53.9275 46.2207 52.4892C47.6065 51.7374 47.6412 51.7047 47.3294 50.0375C47.0522 48.5666 46.29 47.308 45.2679 46.0168C46.1703 46.1319 46.9268 46.4333 47.6643 46.727L47.6644 46.7271L47.6644 46.7271L47.6645 46.7271L47.6646 46.7271C47.9746 46.8506 48.2812 46.9728 48.594 47.0792C50.6639 47.7536 52.6186 48.6333 54.5682 49.5107L54.5689 49.511C54.887 49.6542 55.205 49.7973 55.5233 49.9395ZM46.3766 18.2804C47.5892 17.2834 48.4727 16.0576 49.131 14.652C49.6507 15.2077 49.8066 15.7798 49.668 16.4826C49.1657 18.9996 47.416 20.585 45.1986 21.7781C43.0505 22.9386 40.7118 23.576 38.3212 24.0827C37.9574 24.1644 37.7668 24.1317 37.8708 23.7231C37.9054 23.576 37.9054 23.3799 37.8361 23.2491C37.3337 22.2358 37.9747 22.0723 38.8409 21.8599C41.6126 21.2061 44.1765 20.0947 46.3766 18.2804ZM40.8158 25.6027C41.4394 25.4229 41.6993 25.4556 41.8205 26.1584L41.8458 26.295C41.968 26.9538 42.0312 27.2951 41.8894 27.4719C41.7369 27.6621 41.3473 27.6621 40.5386 27.6621H34.562C34.0082 27.6621 33.4533 27.6611 32.8979 27.6601C31.2294 27.657 29.5561 27.6539 27.8925 27.6785C27.2515 27.6948 27.1129 27.4987 27.2342 26.943L27.241 26.908C27.5288 25.4383 27.5407 25.3773 29.0705 25.8152C33.0202 26.8776 36.918 26.7468 40.8158 25.6027ZM34.5966 22.5463C35.1856 22.5463 35.7053 23.0203 35.688 23.6577C35.6187 24.1971 35.2376 24.573 34.5793 24.573C33.9384 24.573 33.5919 24.1808 33.5399 23.6087C33.4879 23.053 34.0076 22.5627 34.5966 22.5463ZM38.1999 19.8168C35.792 20.6504 33.436 20.6504 30.9934 19.8332C32.7604 18.6073 36.4329 18.6073 38.1999 19.8168ZM22.3836 20.7158C21.0324 19.7188 20.0623 18.4602 19.6292 16.8748C19.352 15.8615 19.404 15.6327 20.0103 14.6847C23.0419 19.2448 24.0467 19.8985 31.6343 22.2194C31.6059 22.3428 31.5644 22.4679 31.5227 22.5936L31.5227 22.5937L31.5227 22.5937L31.5227 22.5937C31.4374 22.8511 31.3512 23.111 31.3745 23.3635C31.4438 24.099 31.2186 24.1808 30.491 24.0173C27.598 23.3309 24.7916 22.4973 22.3836 20.7158ZM14.1377 47.3898C14.9865 40.2309 19.0056 35.0334 24.8609 30.6041C24.8609 31.2864 24.8658 31.9472 24.8706 32.5926V32.5926V32.5927V32.5928C24.8814 34.0497 24.8916 35.4281 24.8436 36.7986C24.7743 39.0868 25.2073 41.1789 27.1822 42.8624C22.6435 43.9574 18.3646 45.4284 14.1377 47.3898ZM43.8127 51.3451C37.3337 53.9765 30.8894 53.8458 24.5317 50.9692C23.9254 50.6913 23.8215 50.4135 24.0467 49.8414C24.7916 47.9455 26.2121 46.5235 27.7366 45.1833C28.0691 44.8989 28.4204 44.6322 28.7717 44.3655L28.7718 44.3654C29.006 44.1876 29.2402 44.0097 29.4689 43.8267C30.1272 43.3037 30.1618 42.7316 29.5729 42.1596C29.4516 42.0452 29.313 41.9307 29.1917 41.8327C27.598 40.6068 26.9224 39.0541 27.009 37.1092C27.0889 35.5255 27.0664 33.9322 27.0439 32.3366C27.0371 31.8573 27.0303 31.3778 27.0263 30.8983C27.0263 30.408 27.0956 30.1791 27.7192 30.1955C29.4516 30.2445 31.1839 30.2282 32.9163 30.1955C33.4187 30.1955 33.5399 30.3426 33.5572 30.8002L33.5585 30.8485V30.8485C33.5833 31.7895 33.596 32.2716 33.3613 32.5185C33.1148 32.7779 32.5954 32.7779 31.5304 32.7779H31.5304H30.4044C29.6768 32.7942 29.2437 33.1375 29.261 33.8239C29.2784 34.4777 29.7114 34.7883 30.4044 34.7883C30.6117 34.7883 30.8201 34.7893 31.0291 34.7903C31.6581 34.7934 32.2921 34.7964 32.9163 34.7719C33.4013 34.7556 33.5572 34.9027 33.5572 35.3603L33.5584 35.452C33.5753 36.7823 33.5753 36.7826 32.0674 36.7986H31.4611C30.7682 36.8476 30.3004 37.1582 30.3178 37.861C30.3524 38.5148 30.8201 38.7926 31.4784 38.8253H31.565C31.7541 38.8303 31.9655 38.8142 32.1779 38.798C32.6661 38.7609 33.1599 38.7233 33.4013 38.9397C33.6907 39.19 33.636 39.6618 33.5819 40.1295C33.5582 40.3338 33.5347 40.5374 33.5399 40.7213C33.5473 41.0224 33.5452 41.3265 33.5431 41.631V41.6313V41.6315C33.5403 42.0376 33.5374 42.4445 33.5572 42.846C33.5746 43.4998 33.921 43.9574 34.6659 43.9411C35.3935 43.9084 35.7227 43.4671 35.7227 42.797C35.7227 42.5109 35.7238 42.2249 35.7248 41.9388C35.7281 41.0808 35.7313 40.2227 35.7053 39.3647C35.688 38.9397 35.8093 38.7763 36.277 38.8253C36.7967 38.858 37.3163 38.8417 37.836 38.8253H37.8361C38.5291 38.809 38.9448 38.4167 38.9448 37.812C38.9448 37.1909 38.5117 36.815 37.8361 36.7986L37.8192 36.7981L37.819 36.7981L37.8185 36.7981H37.8185C37.2704 36.7819 36.7389 36.7663 36.1904 36.7986C35.8093 36.815 35.7227 36.6679 35.7053 36.3246L35.7026 36.2756C35.6614 35.5377 35.6403 35.1619 35.818 34.9705C36.0024 34.7719 36.4007 34.7719 37.2125 34.7719H38.9448C39.6378 34.7556 40.0362 34.3796 40.0362 33.7586C40.0362 33.1702 39.6378 32.7942 38.9968 32.7779C38.096 32.7452 37.2125 32.7452 36.3117 32.7779C35.8613 32.7942 35.74 32.6798 35.7227 32.2385L35.721 32.1895V32.1895C35.6878 31.2194 35.6708 30.7252 35.9096 30.4734C36.1576 30.2118 36.6815 30.2118 37.7495 30.2118C38.1102 30.2118 38.4723 30.2145 38.8351 30.2172C39.744 30.2238 40.6568 30.2305 41.5607 30.1955C42.115 30.1791 42.2536 30.3426 42.2363 30.8493C42.2103 31.8059 42.2135 32.7718 42.2168 33.733V33.7345V33.7361V33.7376C42.2179 34.0558 42.219 34.3735 42.219 34.6902H42.167V38.2042C42.1843 39.4954 41.526 40.4924 40.6079 41.3587C40.4487 41.5089 40.282 41.6521 40.1127 41.7974L40.1127 41.7975C40.0242 41.8735 39.9349 41.9502 39.8456 42.0288C39.0314 42.748 39.0661 43.32 39.9496 43.9574C41.8032 45.314 43.5182 46.8177 44.6962 48.7627C45.701 50.4625 45.6836 50.5933 43.8127 51.3451ZM42.063 42.8787C43.6048 41.4404 44.3844 39.7569 44.3497 37.7629C44.3382 36.7823 44.342 35.8016 44.3459 34.8209L44.3459 34.818C44.3478 34.3287 44.3497 33.8393 44.3497 33.35V30.6204C47.6585 33.0558 50.3783 35.7689 52.3358 39.1195C53.7044 41.4731 54.6745 43.9574 54.9344 46.6379C54.9383 46.6868 54.9533 46.7399 54.9683 46.7932C55.0186 46.9718 55.0694 47.1521 54.7091 47.1773C50.6728 45.4121 46.5152 43.9248 42.063 42.8787ZM12.6998 13.0339C10.2053 15.4692 8.28236 18.2641 6.84452 21.3368C5.51061 24.1808 4.67909 27.1554 4.48853 30.2609C4.39982 30.5538 4.41105 30.851 4.42219 31.1459C4.4328 31.427 4.44334 31.7059 4.36726 31.977V33.6115C4.44172 33.8769 4.43321 34.146 4.42475 34.4135C4.41549 34.7061 4.4063 34.9968 4.50585 35.2786C4.80035 39.4464 6.13426 43.3037 8.29969 46.9158C8.49025 47.2345 8.69813 47.541 8.90601 47.8474C9.11389 48.1539 9.32177 48.4603 9.51233 48.779C9.80683 49.253 9.89344 49.7924 9.33909 50.152C8.76742 50.5279 8.1611 50.5442 7.72801 49.9395L7.55735 49.7057C7.04057 48.9987 6.5209 48.2877 6.09961 47.5369C4.21135 44.1372 2.89477 40.5578 2.40972 36.7169C2.33367 36.5575 2.34005 36.3864 2.34644 36.215C2.35315 36.035 2.35987 35.8546 2.27113 35.6872L2.21916 34.7556C2.13254 33.3826 2.13254 32.0261 2.21916 30.6695C2.21916 30.408 2.23648 30.1465 2.25381 29.885C2.34493 29.7474 2.34019 29.5963 2.33539 29.4435C2.33107 29.3058 2.32671 29.1667 2.39239 29.035C2.77351 25.472 3.88221 22.0887 5.61455 18.9179C7.0524 16.2047 8.87136 13.704 11.1927 11.5793C11.7297 11.0889 12.2494 11.0726 12.7691 11.4322C13.3581 11.8408 13.3235 12.4292 12.6998 13.0339ZM61.2921 50.0702C60.807 50.4625 60.27 50.5933 59.7503 50.1683C59.2479 49.776 59.2999 49.1876 59.5944 48.7954C60.859 46.9975 61.9157 45.0852 62.7472 43.0912C63.4575 41.375 64.0985 39.6098 64.3064 37.7466C64.3363 37.4712 64.3985 37.1989 64.461 36.9257C64.5432 36.5664 64.6257 36.2056 64.6355 35.8343C64.718 35.6526 64.7132 35.4616 64.7083 35.2713C64.704 35.1021 64.6997 34.9334 64.7568 34.7719C64.8607 33.4153 64.93 32.0424 64.7568 30.6858C64.6997 30.5243 64.704 30.3556 64.7083 30.1864C64.7132 29.9961 64.718 29.8052 64.6355 29.6234C64.393 27.515 63.8906 25.4883 63.163 23.4943C62.8858 22.7425 63.1284 21.9579 63.7347 21.7618C64.3583 21.5657 64.9473 21.9252 65.2418 22.7425C65.9348 24.6547 66.4545 26.5997 66.7143 28.5937C66.7403 28.7899 66.7955 28.986 66.8507 29.1822C66.8691 29.2475 66.8876 29.3129 66.9049 29.3783C66.981 29.5938 66.9704 29.8171 66.9598 30.0405C66.9486 30.2747 66.9375 30.509 67.0261 30.7349V34.6738C66.9519 34.8227 66.9522 34.9856 66.9525 35.15C66.9528 35.2925 66.9531 35.4362 66.9049 35.5728C66.3159 40.6395 64.6701 45.3467 61.6559 49.6126C61.621 49.6596 61.589 49.708 61.5573 49.7558L61.5573 49.7558C61.479 49.8741 61.4031 49.9887 61.2921 50.0702ZM12.3014 55.0389C12.7172 55.3495 13.3062 55.3168 13.6873 54.8918C14.0684 54.4669 14.207 53.9929 13.7219 53.5352L13.7219 53.5352L13.7218 53.5352L13.7218 53.5351L13.7218 53.5351L13.7217 53.5351L13.7217 53.535C13.3233 53.1428 12.925 52.7506 12.5093 52.3748C11.851 51.7864 11.262 51.8681 10.6903 52.5709C10.621 52.8488 10.621 53.1103 10.6903 53.3881C11.0211 54.0747 11.636 54.5378 12.2186 54.9765L12.2187 54.9766L12.3014 55.0389ZM58.4337 52.5873C58.7455 53.1103 58.3644 53.8621 57.6022 54.2217C56.9785 54.5159 56.4415 54.3361 56.095 53.715C56.0258 53.4372 56.0258 53.1593 56.1124 52.8978C56.2135 52.8024 56.2858 52.6872 56.3578 52.5724C56.4708 52.3922 56.5831 52.2131 56.8053 52.1133C57.3943 51.8518 58.1219 52.0479 58.4337 52.5873ZM69.1049 57.8011L68.6026 57.3271C68.3806 57.1793 68.139 57.1986 67.9074 57.2171C67.8317 57.2231 67.757 57.2291 67.6844 57.2291H56.6147C55.93 57.2291 55.5968 57.2291 55.4135 57.0633C55.2398 56.9061 55.2008 56.5999 55.1249 56.0033C54.8997 55.3985 54.3973 55.2024 53.791 55.2678C53.0818 55.3494 53.0462 55.8872 53.0116 56.4095L53.0115 56.4119C53.0028 56.5346 52.9941 56.6533 52.9854 56.772C52.9768 56.8903 52.9681 57.0086 52.9595 57.131C52.7129 57.2535 52.4566 57.2383 52.1978 57.223C52.1112 57.2179 52.0243 57.2127 51.9374 57.2127H1.71678C1.62993 57.2127 1.54309 57.2097 1.45652 57.2066H1.45637C1.19761 57.1974 0.941292 57.1883 0.694695 57.2618C-0.154153 57.654 -0.24077 58.553 0.521461 59.3048C0.978218 59.7492 1.4438 60.1825 1.9085 60.615L1.90861 60.6151C2.57186 61.2324 3.23335 61.8481 3.86488 62.492C4.4712 63.113 5.14682 63.3582 6.04764 63.3419C12.1726 63.3353 18.2976 63.334 24.4226 63.3327H24.4286C33.6155 63.3307 42.8024 63.3288 51.9894 63.3092C52.8036 63.3092 53.0808 63.4563 53.0288 64.2571C52.9595 65.1888 53.4619 65.5157 54.3454 65.2705C54.7438 65.1561 54.9863 64.8455 55.1076 64.4696C55.1324 64.3408 55.115 64.2057 55.0976 64.0704C55.0663 63.8278 55.0349 63.5844 55.2462 63.3745C59.3692 63.3582 63.4921 63.3419 67.5978 63.3419C68.2561 63.3419 68.7758 63.2111 69.1396 62.6717C69.1485 62.3975 69.1594 62.1223 69.1704 61.8463C69.2234 60.5103 69.2772 59.1557 69.1049 57.8011ZM51.4524 61.3152C47.7617 61.3152 44.0721 61.3141 40.3831 61.3131H40.3815C29.318 61.3101 18.2594 61.307 7.19098 61.3315C6.22087 61.3315 5.47596 61.1517 4.86964 60.4162C4.64609 60.1467 4.3691 59.9192 4.02593 59.6373L4.02588 59.6373C3.8904 59.526 3.7446 59.4063 3.58771 59.2721H3.59924C20.0698 59.2721 36.2288 59.2721 52.3878 59.2558C52.8729 59.2558 53.0115 59.3538 53.0115 59.8278L53.012 59.8753C53.0202 60.5736 53.0245 60.9332 52.8468 61.1184C52.6582 61.3152 52.2644 61.3152 51.4524 61.3152H51.4524ZM56.6493 61.3152C55.8462 61.3152 55.4523 61.3152 55.2659 61.1185C55.0864 60.9291 55.0994 60.5574 55.1249 59.8278C55.1249 59.7856 55.1163 59.7379 55.1074 59.6886C55.0784 59.5282 55.0464 59.351 55.2982 59.2885C55.558 59.2231 55.7832 59.2885 55.9738 59.5009C56.2991 59.8591 56.6313 60.2108 56.9915 60.5922L56.9921 60.5929L56.9924 60.5932C57.2073 60.8207 57.4321 61.0588 57.6715 61.3152H56.6494H56.6493ZM59.3867 60.0769L59.3864 60.0765C59.1585 59.8317 58.9291 59.5853 58.6762 59.3212H61.0149C60.9107 59.6455 60.6937 59.9049 60.4657 60.1775C60.3146 60.3581 60.1586 60.5445 60.0275 60.7595C59.8037 60.5249 59.5958 60.3015 59.3867 60.0769ZM62.3661 61.2825C62.4658 60.918 62.7179 60.6381 62.987 60.3394C63.0919 60.2228 63.1995 60.1034 63.3016 59.9749C63.5116 60.2424 63.7152 60.4919 63.9279 60.7524L63.9281 60.7527L63.9285 60.7532C64.0666 60.9223 64.2084 61.0961 64.3583 61.2825H62.3661ZM65.9404 59.8998L65.9388 59.8977C65.7985 59.7158 65.6595 59.5356 65.519 59.3538C65.7469 59.3373 65.9421 59.3179 66.109 59.3013C66.5627 59.2561 66.8073 59.2318 66.9316 59.3425C67.0771 59.4721 67.0579 59.7867 67.0161 60.4694C67.0029 60.6853 66.9874 60.9381 66.9742 61.2334C66.5991 60.7541 66.2663 60.3225 65.9404 59.8998ZM64.826 15.6327V17.1037C64.1678 20.0293 60.7724 21.2551 58.6589 20.1437C57.5155 19.539 56.4761 18.6727 56.2856 17.2671C56.1816 16.7277 56.199 16.172 56.2856 15.6327C56.9612 12.6743 60.0101 11.8735 62.1582 12.6907C63.5788 13.23 64.4103 14.2761 64.826 15.6327ZM62.6953 16.4826C62.7126 15.4038 61.7598 14.4559 60.5991 14.4232C59.4384 14.3905 58.399 15.3385 58.3817 16.4662C58.3817 17.4796 59.4038 18.4439 60.4952 18.4602C61.6558 18.4766 62.6606 17.5613 62.6953 16.4826Z" fill="white"/>
</svg>
