<svg width="31" height="29" viewBox="0 0 31 29" fill="none" xmlns="http://www.w3.org/2000/svg">
<path fill-rule="evenodd" clip-rule="evenodd" d="M15.6111 26.4876C16.3685 26.4876 17.6373 25.81 18.8309 23.4325C19.2706 22.5567 19.6528 21.5306 19.9551 20.3868H11.2671C11.5694 21.5306 11.9516 22.5567 12.3913 23.4325C13.5849 25.81 14.8537 26.4876 15.6111 26.4876ZM10.8718 18.5613C10.6456 17.2454 10.5196 15.8184 10.5196 14.318C10.5196 13.3615 10.5708 12.4349 10.6665 11.5478H20.5557C20.6514 12.4349 20.7026 13.3615 20.7026 14.318C20.7026 15.8184 20.5767 17.2454 20.3504 18.5613H10.8718ZM21.9442 20.3868C21.4032 22.6226 20.5725 24.528 19.5492 25.9099C22.6296 24.9792 25.206 22.9857 26.7939 20.3868H21.9442ZM27.7039 18.5613H22.3086C22.5222 17.2229 22.6374 15.7973 22.6374 14.318C22.6374 13.3696 22.5901 12.4433 22.4998 11.5478H28.174C28.3936 12.4377 28.5097 13.3651 28.5097 14.318C28.5097 15.8104 28.2249 17.2401 27.7039 18.5613ZM8.91357 18.5613H3.51833C2.9973 17.2401 2.71255 15.8104 2.71255 14.318C2.71255 13.3651 2.82864 12.4377 3.04821 11.5478H8.72242C8.63215 12.4433 8.58479 13.3696 8.58479 14.318C8.58479 15.7973 8.70002 17.2229 8.91357 18.5613ZM4.42835 20.3868H9.27799C9.81902 22.6226 10.6497 24.528 11.673 25.9099C8.59264 24.9792 6.01622 22.9857 4.42835 20.3868ZM10.9352 9.72239H20.287C19.9583 7.97759 19.452 6.44053 18.8309 5.20348C17.6373 2.82602 16.3685 2.14843 15.6111 2.14843C14.8537 2.14843 13.5849 2.82602 12.3913 5.20348C11.7702 6.44053 11.2639 7.97759 10.9352 9.72239ZM22.2498 9.72239H27.5583C26.1252 6.40941 23.189 3.82588 19.5492 2.72606C20.7907 4.40262 21.7486 6.84968 22.2498 9.72239ZM11.673 2.72606C10.4315 4.40262 9.47359 6.84968 8.97239 9.72239H3.66394C5.09703 6.40941 8.03321 3.82588 11.673 2.72606ZM15.6111 0.322998C23.8033 0.322998 30.4444 6.58877 30.4444 14.318C30.4444 22.0472 23.8033 28.313 15.6111 28.313C7.41888 28.313 0.777771 22.0472 0.777771 14.318C0.777771 6.58877 7.41888 0.322998 15.6111 0.322998Z" fill="white"/>
</svg>
