<svg width="25" height="29" viewBox="0 0 25 29" fill="none" xmlns="http://www.w3.org/2000/svg">
<path fill-rule="evenodd" clip-rule="evenodd" d="M20.5222 6.29035C21.624 6.29035 22.5172 5.45874 22.5172 4.43289C22.5172 3.40705 21.624 2.57543 20.5222 2.57543C19.4204 2.57543 18.5272 3.40705 18.5272 4.43289C18.5272 5.45874 19.4204 6.29035 20.5222 6.29035ZM20.5222 8.11579C22.7068 8.11579 24.4778 6.4669 24.4778 4.43289C24.4778 2.39889 22.7068 0.75 20.5222 0.75C18.3376 0.75 16.5667 2.39889 16.5667 4.43289C16.5667 4.85506 16.643 5.26063 16.7834 5.63831L6.79188 11.6187C6.18505 11.2659 5.46809 11.0621 4.7 11.0621C2.51541 11.0621 0.744446 12.711 0.744446 14.745C0.744446 16.779 2.51541 18.4279 4.7 18.4279C5.46809 18.4279 6.18505 18.2241 6.79188 17.8713L16.7834 23.8517C16.643 24.2294 16.5667 24.6349 16.5667 25.0571C16.5667 27.0911 18.3376 28.74 20.5222 28.74C22.7068 28.74 24.4778 27.0911 24.4778 25.0571C24.4778 23.0231 22.7068 21.3742 20.5222 21.3742C19.4993 21.3742 18.5671 21.7357 17.865 22.329L8.16488 16.523C8.47758 15.9959 8.65556 15.3898 8.65556 14.745C8.65556 14.1002 8.47758 13.4941 8.16488 12.967L17.865 7.16104C18.5672 7.7543 19.4993 8.11579 20.5222 8.11579ZM20.5222 26.9146C21.624 26.9146 22.5172 26.083 22.5172 25.0571C22.5172 24.0313 21.624 23.1996 20.5222 23.1996C19.4204 23.1996 18.5272 24.0313 18.5272 25.0571C18.5272 26.083 19.4204 26.9146 20.5222 26.9146ZM6.69498 14.745C6.69498 15.7708 5.8018 16.6025 4.7 16.6025C3.59821 16.6025 2.70503 15.7708 2.70503 14.745C2.70503 13.7192 3.59821 12.8875 4.7 12.8875C5.8018 12.8875 6.69498 13.7192 6.69498 14.745Z" fill="white"/>
</svg>
